<svg xmlns="http://www.w3.org/2000/svg" version="1.0" width="400.000000pt" height="400.000000pt" viewBox="0 0 400.000000 400.000000" preserveAspectRatio="xMidYMid meet">
<metadata>
Created by potrace 1.16, written by Peter Selinger 2001-2019
</metadata>
<g transform="translate(0.000000,400.000000) scale(0.100000,-0.100000)" fill="#000000" stroke="none">
<path d="M1588 3982 c-8 -12 -25 -18 -48 -17 -24 0 -34 -4 -32 -13 1 -8 -2 -11 -8 -7 -6 4 -17 1 -25 -5 -8 -6 -19 -9 -24 -6 -5 4 -12 2 -16 -4 -3 -5 -27 -10 -53 -10 l-47 0 31 -22 c21 -15 32 -31 32 -48 0 -33 -8 -46 -19 -29 -6 10 -9 11 -9 2 0 -7 -7 -13 -16 -13 -10 0 -14 6 -10 15 3 10 -1 15 -13 15 -11 0 -21 4 -23 10 -2 6 -9 6 -17 0 -12 -7 -13 -11 -1 -24 7 -9 10 -19 6 -23 -3 -3 -6 0 -6 8 0 8 -8 2 -18 -14 -10 -15 -21 -24 -25 -21 -3 4 -11 -6 -18 -22 -23 -59 -34 -79 -51 -98 -10 -11 -18 -24 -18 -29 0 -5 -13 -26 -29 -46 -17 -21 -35 -49 -42 -64 -7 -15 -18 -27 -25 -27 -7 0 -19 -10 -25 -22 -7 -13 -15 -25 -18 -28 -20 -16 -37 -59 -34 -84 3 -20 -1 -33 -11 -38 -9 -5 -16 -15 -16 -22 0 -8 -7 -20 -16 -27 -16 -13 -34 -49 -40 -80 -2 -9 -9 -29 -15 -45 -6 -16 -13 -42 -14 -59 -8 -72 -26 -224 -33 -272 -5 -29 -4 -57 0 -61 13 -13 21 -291 10 -340 -9 -38 -7 -46 13 -70 30 -36 37 -90 41 -322 2 -107 7 -248 12 -314 6 -89 4 -122 -5 -135 -17 -22 -16 -31 3 -31 13 0 15 -8 12 -40 -2 -22 0 -40 4 -40 5 0 8 -12 8 -27 0 -29 41 -230 59 -295 6 -21 15 -53 20 -70 5 -18 14 -48 20 -66 9 -31 9 -33 -32 -54 -23 -11 -73 -55 -112 -96 -38 -41 -115 -114 -170 -162 -84 -73 -108 -89 -145 -95 -84 -13 -212 -50 -483 -138 l-97 -31 0 -213 0 -213 656 0 655 0 -7 23 c-4 12 -15 33 -25 46 -11 13 -19 30 -19 37 0 8 -4 14 -9 14 -5 0 -11 8 -14 18 -2 9 -8 25 -12 35 -5 11 -3 17 6 17 22 0 266 -147 282 -170 14 -20 19 -20 1183 -18 l1169 3 -50 24 c-27 13 -86 40 -130 61 -94 45 -266 109 -385 144 -138 40 -584 196 -600 210 -39 34 -36 18 25 -102 36 -72 65 -136 65 -144 0 -16 -261 -101 -305 -99 -36 1 -101 -12 -213 -46 -46 -14 -86 -22 -89 -19 -3 3 11 25 31 48 51 60 177 226 201 265 127 207 162 284 146 325 -14 38 0 44 16 7 19 -46 28 -28 13 25 -12 45 -12 46 35 126 26 44 53 83 60 88 7 4 20 21 29 37 9 17 20 37 26 45 86 139 150 289 153 358 0 8 13 27 29 42 19 19 24 30 15 33 -9 4 -9 6 1 6 6 1 12 10 12 20 0 11 5 23 11 27 6 3 8 16 4 28 -14 47 -12 98 5 133 10 21 16 43 13 50 -3 7 7 33 21 59 27 49 46 144 28 144 -6 0 -8 30 -6 82 5 93 14 118 14 40 0 -90 30 -61 50 47 9 52 9 66 -2 72 -9 6 -9 9 -1 9 7 0 11 12 10 28 -2 20 -8 28 -25 30 -14 2 -22 10 -22 22 0 26 19 117 35 165 19 58 47 214 40 225 -3 5 0 58 7 119 13 120 13 117 -57 401 -9 36 -23 94 -32 130 -26 107 -63 204 -86 225 -25 23 -53 76 -63 120 -4 17 -12 33 -18 37 -6 4 -11 13 -11 19 0 7 -6 14 -13 17 -8 2 -10 -3 -6 -15 5 -17 5 -17 -9 0 -11 13 -16 15 -20 5 -2 -7 -8 -10 -12 -6 -5 5 0 17 10 28 14 16 16 23 7 32 -9 9 -12 8 -12 -5 0 -11 -5 -14 -16 -10 -8 3 -13 12 -9 21 3 8 0 21 -6 28 -11 14 -1 18 38 17 7 -1 10 3 7 8 -6 11 -42 8 -62 -5 -7 -4 -19 -3 -27 4 -17 14 -20 40 -5 40 6 0 10 5 10 11 0 6 -9 9 -20 6 -29 -8 -24 0 13 19 19 11 27 19 19 22 -8 2 -19 -1 -25 -7 -6 -6 -19 -11 -29 -11 -23 0 -68 21 -63 29 2 4 -8 7 -23 8 -47 1 -53 3 -47 12 3 5 -4 12 -15 16 -11 3 -20 11 -20 16 0 5 -5 9 -10 9 -6 0 -20 9 -32 20 -21 19 -36 20 -454 20 -405 0 -434 -1 -446 -18z m-28 -30 c0 -4 -8 -12 -18 -18 -15 -10 -18 -8 -19 7 -1 13 5 19 18 19 10 0 19 -3 19 -8z m335 -357 c11 -4 32 -11 47 -17 15 -6 30 -9 34 -8 4 1 10 -2 13 -8 11 -16 70 -32 77 -20 12 19 185 4 236 -21 24 -11 52 -21 62 -21 10 0 40 -11 68 -25 27 -14 55 -25 62 -25 7 0 30 -11 50 -25 21 -14 41 -23 46 -20 19 12 130 -54 130 -77 0 -17 63 -88 78 -88 8 0 12 -6 8 -15 -3 -8 -1 -15 4 -15 6 0 10 -8 10 -17 0 -15 2 -15 9 -4 8 13 12 13 26 1 10 -8 22 -26 27 -40 15 -37 12 -278 -3 -296 -10 -13 -10 -17 0 -24 9 -5 10 -9 2 -14 -6 -4 -8 -12 -5 -18 4 -6 6 -41 5 -77 -2 -86 -3 -91 -13 -85 -4 3 -11 -2 -14 -10 -8 -22 -26 -9 -19 13 3 11 -2 24 -12 32 -15 11 -16 11 -5 -1 6 -8 12 -18 12 -23 0 -5 -24 12 -52 39 -66 59 -103 76 -135 61 -16 -7 -30 -7 -47 1 -19 8 -31 7 -58 -7 -26 -13 -55 -16 -125 -14 l-92 3 -21 -35 c-12 -19 -26 -34 -33 -32 -17 3 -35 21 -30 30 2 4 0 7 -5 7 -6 0 -8 -19 -5 -42 3 -32 2 -39 -6 -28 -9 12 -11 11 -11 -7 0 -13 -3 -23 -7 -23 -5 0 -9 -19 -11 -42 -1 -23 -6 -45 -10 -48 -22 -16 -52 -94 -52 -134 0 -75 64 -204 96 -192 7 3 14 1 16 -4 2 -5 9 -6 15 -2 11 7 16 27 22 89 1 8 20 9 63 6 47 -5 59 -3 54 6 -5 7 -14 10 -21 7 -24 -9 -25 7 -3 31 21 22 66 33 53 13 -8 -13 20 -66 45 -83 18 -13 19 -15 5 -21 -11 -4 -14 -2 -9 6 5 8 2 9 -10 5 -14 -6 -17 -3 -12 10 6 15 4 15 -14 -2 l-21 -19 43 -20 c47 -21 150 -26 245 -12 47 8 54 6 75 -16 29 -31 63 -45 54 -23 -3 8 0 15 5 15 6 0 9 8 6 19 -2 10 0 26 5 35 5 9 5 16 1 16 -5 0 -7 18 -5 40 3 32 9 41 27 46 13 3 28 3 33 0 6 -3 10 31 9 85 0 61 4 94 13 102 10 9 11 9 5 -1 -4 -8 0 -21 9 -31 19 -21 46 -234 46 -364 0 -133 -49 -450 -73 -474 -6 -7 -23 -14 -35 -16 -26 -4 -125 -105 -116 -119 3 -5 0 -7 -8 -6 -8 2 -14 -8 -16 -27 -3 -32 -30 -113 -44 -131 -4 -6 -4 -15 0 -19 4 -5 2 -5 -4 -2 -6 4 -20 -5 -30 -19 -11 -15 -23 -31 -29 -38 -5 -6 -11 -24 -12 -41 -2 -21 -16 -43 -48 -73 -25 -23 -50 -42 -55 -42 -11 0 -36 -51 -45 -92 -4 -18 -12 -42 -18 -53 -6 -11 -12 -29 -13 -40 -3 -24 -62 -125 -83 -141 -8 -6 -22 -9 -32 -7 -9 3 -41 -12 -70 -33 -36 -25 -65 -38 -86 -38 -26 0 -33 -4 -34 -20 0 -19 -1 -19 -8 -3 -5 15 -9 12 -19 -17 -8 -21 -20 -36 -29 -36 -9 0 -24 -6 -32 -14 -23 -21 -131 -57 -131 -44 0 6 -13 8 -34 5 -26 -4 -39 -1 -52 14 -21 24 -32 24 -36 1 -3 -13 -7 -10 -22 14 -14 24 -24 30 -43 26 -18 -3 -26 0 -30 16 -3 13 -10 19 -19 15 -9 -3 -14 2 -14 13 0 14 -3 15 -12 6 -7 -7 -21 -12 -31 -12 -17 0 -18 2 -6 17 11 13 11 17 1 20 -6 3 -9 10 -5 15 4 7 -1 9 -15 6 -16 -4 -19 -2 -15 10 4 10 2 13 -5 8 -7 -4 -12 -16 -12 -26 0 -27 -19 -35 -35 -14 -11 15 -10 20 2 30 14 10 14 11 0 17 -9 3 -18 -1 -21 -10 -6 -14 -8 -14 -24 -1 -9 9 -24 13 -32 10 -8 -2 -12 -1 -8 3 5 5 -4 23 -18 42 -14 18 -24 39 -22 45 7 19 -56 68 -71 56 -2 -2 -7 7 -12 20 -5 12 -15 22 -24 22 -8 0 -15 6 -15 14 0 8 -6 21 -13 28 -7 7 -19 27 -26 45 -18 45 -54 90 -67 86 -8 -3 -11 8 -10 31 1 19 -1 34 -4 34 -32 -2 -40 4 -40 33 0 24 -4 30 -15 25 -8 -3 -15 0 -15 6 0 6 -3 9 -6 5 -10 -10 -34 20 -34 42 0 12 -6 21 -15 21 -8 0 -14 3 -14 8 1 4 1 9 -1 12 -1 3 -3 18 -5 34 -2 15 -10 36 -18 45 -10 11 -14 42 -13 108 1 50 -1 90 -4 88 -3 -2 -5 34 -6 79 0 54 -6 91 -17 112 -16 32 -17 144 -2 354 11 146 65 417 100 495 20 46 40 114 51 173 4 21 7 54 19 242 7 102 9 117 18 126 4 4 7 18 7 30 0 13 4 25 9 28 5 4 19 27 31 52 13 25 32 49 44 54 11 4 30 17 40 29 11 11 23 21 29 21 5 0 28 13 52 29 24 16 53 32 65 36 12 4 41 19 63 35 40 26 80 41 237 89 63 18 133 21 175 6z m1004 -57 l11 -33 -20 24 c-11 12 -17 27 -14 32 8 14 11 11 23 -23z m79 -148 l0 -25 -8 25 c-4 14 -8 34 -8 45 l-1 20 9 -20 c5 -11 8 -31 8 -45z m-291 -836 c12 -7 29 -14 38 -14 8 0 15 -4 15 -10 0 -5 -6 -10 -12 -10 -9 0 -9 -3 1 -9 8 -5 11 -16 8 -24 -3 -8 0 -20 6 -26 23 -23 -8 -31 -48 -12 -22 11 -56 22 -75 26 l-35 6 31 -19 c17 -11 40 -22 50 -25 10 -2 2 -5 -18 -6 -21 0 -38 -4 -38 -9 0 -4 -29 -8 -65 -8 -37 -1 -71 -6 -77 -12 -7 -7 -26 -12 -43 -12 -18 0 -53 -14 -85 -35 -58 -38 -83 -44 -74 -20 4 8 10 15 15 15 4 0 33 20 62 44 69 56 108 76 166 86 l46 8 -40 1 c-43 1 -102 -12 -150 -34 -45 -20 -78 -26 -93 -16 -12 7 -11 14 3 41 31 59 86 73 360 87 17 1 40 -5 52 -13z m177 -205 c-9 -15 -20 -10 -20 10 0 15 3 17 13 9 7 -6 10 -14 7 -19z m-281 -116 c-13 -2 -35 -2 -50 0 -16 2 -5 4 22 4 28 0 40 -2 28 -4z m-1503 -1349 c0 -59 59 -162 94 -164 5 0 25 -12 45 -27 20 -16 41 -27 48 -25 6 1 10 -5 9 -15 -2 -11 17 -31 53 -55 79 -55 154 -114 254 -198 23 -20 86 -71 140 -115 98 -78 257 -232 257 -247 0 -5 -18 1 -41 12 -22 12 -78 28 -122 36 -45 7 -98 18 -117 24 -59 17 -87 12 -112 -19 -25 -31 -64 -55 -77 -47 -4 3 -11 54 -14 114 -4 60 -9 115 -12 124 -3 8 -25 25 -48 38 -181 102 -367 261 -367 314 0 37 -19 42 -31 7 -19 -55 -35 -37 -45 55 -6 48 -3 62 32 139 21 47 42 85 46 85 4 0 8 -16 8 -36z"/>
<path d="M1507 2813 c-3 -3 -46 -6 -95 -8 -82 -3 -94 -6 -144 -38 -57 -37 -121 -107 -138 -152 -13 -34 -13 -85 0 -85 6 0 10 4 10 9 0 17 98 113 109 107 5 -4 25 3 43 14 18 11 50 20 70 20 20 0 39 4 43 10 3 5 15 6 28 1 12 -5 25 -9 30 -9 25 0 229 -43 293 -63 52 -15 77 -12 71 11 -3 10 0 21 7 23 8 3 8 8 -1 18 -16 16 -17 33 -2 24 6 -4 5 3 -3 15 -25 40 -68 58 -163 65 -55 5 -101 15 -121 26 -18 10 -34 15 -37 12z"/>
<path d="M1511 2550 c41 -4 79 -15 102 -29 43 -27 44 -29 15 -29 -184 -4 -321 -45 -362 -107 -21 -32 -20 -35 9 -35 14 0 25 -3 25 -7 0 -5 13 -8 30 -8 27 0 29 3 25 27 -4 20 0 30 14 38 28 15 30 14 47 -29 14 -35 21 -41 64 -51 27 -7 54 -9 59 -5 6 3 19 1 28 -4 20 -11 20 -11 -45 -17 -35 -2 -58 -14 -29 -14 9 0 17 -6 17 -12 0 -10 3 -9 9 1 6 9 18 11 40 6 20 -4 31 -3 31 5 0 6 5 8 10 5 6 -3 10 -1 10 6 0 6 8 9 18 7 10 -3 23 1 29 7 6 7 32 16 57 19 50 8 53 11 31 40 -21 28 -19 34 10 28 26 -4 55 12 55 31 0 6 -3 7 -7 4 -3 -4 -12 -2 -20 4 -7 6 -13 8 -13 3 0 -4 -6 -1 -12 7 -27 32 -112 93 -147 105 -20 7 -65 13 -101 12 l-65 -1 66 -7z"/>
<path d="M1335 2524 c-36 -18 -77 -55 -70 -62 3 -3 -5 -16 -17 -29 -12 -13 -17 -23 -11 -23 5 0 27 21 49 47 21 25 52 54 69 65 37 22 22 24 -20 2z"/>
<path d="M1370 2326 c0 -2 9 -6 20 -9 11 -3 20 -1 20 4 0 5 -9 9 -20 9 -11 0 -20 -2 -20 -4z"/>
<path d="M1445 2290 c3 -5 11 -10 16 -10 6 0 7 5 4 10 -3 6 -11 10 -16 10 -6 0 -7 -4 -4 -10z"/>
<path d="M1628 2263 c7 -3 16 -2 19 1 4 3 -2 6 -13 5 -11 0 -14 -3 -6 -6z"/>
<path d="M2756 2142 c-3 -5 8 -13 25 -19 35 -14 37 -10 5 11 -14 9 -27 12 -30 8z"/>
<path d="M2430 2131 c0 -19 118 -47 234 -56 43 -3 90 -8 103 -11 32 -8 30 11 -4 33 -19 12 -50 18 -102 20 -42 1 -105 6 -141 12 -80 13 -90 13 -90 2z"/>
<path d="M2310 1921 c0 -6 4 -13 10 -16 6 -3 7 1 4 9 -7 18 -14 21 -14 7z"/>
<path d="M2351 1804 c-7 -24 -19 -44 -27 -44 -20 0 -124 51 -124 61 0 5 -11 4 -24 -1 -13 -5 -26 -7 -29 -4 -2 2 -30 -9 -62 -26 -77 -40 -160 -43 -193 -5 -17 19 -31 25 -65 25 -41 0 -137 -26 -137 -37 0 -10 34 -63 41 -63 4 0 9 -9 12 -20 4 -15 -5 -28 -34 -51 -22 -17 -39 -27 -38 -23 4 23 -3 26 -20 10 -11 -10 -27 -19 -36 -20 -9 -1 -21 -9 -26 -17 -7 -11 -9 -10 -9 5 0 16 -2 17 -17 5 -15 -12 -16 -12 -10 4 7 19 -3 16 -33 -9 -8 -7 -31 -13 -50 -15 -19 -2 -41 -7 -47 -12 -9 -7 -13 -4 -13 7 0 23 -17 20 -25 -4 -3 -11 -10 -20 -14 -20 -4 0 -4 -25 0 -56 4 -30 5 -78 3 -105 -5 -54 10 -66 35 -28 9 15 15 18 20 10 5 -8 13 -6 25 8 18 20 19 20 54 -4 45 -31 62 -32 62 -4 0 14 5 19 14 16 8 -3 17 1 20 9 4 10 13 13 26 9 14 -4 22 -1 27 10 5 14 14 16 44 11 21 -3 40 -2 44 4 7 11 150 3 175 -10 9 -5 43 -8 74 -7 44 1 61 -2 70 -14 10 -15 14 -15 31 -3 25 19 31 18 56 -7 15 -15 24 -18 32 -10 6 6 19 11 29 11 14 0 18 -8 18 -36 0 -52 -16 -77 -45 -70 -13 3 -35 1 -48 -5 -18 -8 -30 -8 -45 0 -16 8 -21 7 -26 -4 -6 -17 -77 -21 -106 -5 -11 6 -21 6 -24 1 -3 -5 -24 -7 -46 -4 -34 5 -39 3 -35 -10 13 -31 120 -36 241 -12 41 9 79 13 84 10 5 -3 11 -1 15 5 3 5 11 10 17 10 7 0 6 -6 -2 -15 -9 -10 -9 -15 -1 -15 6 0 11 -8 12 -17 1 -12 4 -10 9 7 4 14 8 19 9 13 2 -25 34 -12 71 27 38 40 38 40 94 34 46 -6 57 -4 62 10 3 9 12 16 20 16 8 0 11 6 8 15 -10 25 31 18 45 -7 10 -21 11 -19 8 15 -3 35 -1 37 25 37 30 0 34 10 18 41 -8 14 -7 19 1 19 8 0 6 7 -5 19 -10 11 -20 43 -23 76 -4 39 -15 69 -35 98 -16 23 -44 65 -63 92 -19 28 -49 64 -68 82 l-33 31 -13 -44z m-726 -276 c12 -26 42 -40 32 -14 -7 17 8 22 18 6 9 -14 45 -12 46 3 0 9 2 9 5 0 3 -7 12 -9 20 -6 8 3 14 0 14 -7 0 -6 5 -8 12 -4 7 5 21 9 31 9 10 1 23 8 27 15 7 11 11 12 25 0 9 -7 43 -14 78 -15 34 0 69 -4 77 -8 8 -3 29 -8 45 -10 57 -9 85 -19 85 -32 0 -10 -24 -12 -102 -9 -213 8 -395 8 -455 0 -46 -6 -63 -5 -63 4 0 7 8 9 20 5 11 -4 20 -2 20 4 0 6 9 20 20 31 11 11 20 27 20 35 0 22 14 18 25 -7z m431 -15 c-7 -7 -26 7 -26 19 0 6 6 6 15 -2 9 -7 13 -15 11 -17z m-642 -78 c-4 -8 -8 -15 -10 -15 -2 0 -4 7 -4 15 0 8 4 15 10 15 5 0 7 -7 4 -15z"/>
<path d="M1482 1708 c-7 -7 -12 -16 -12 -20 0 -15 15 -8 28 12 13 22 3 27 -16 8z"/>
<path d="M1430 1640 c-14 -10 -22 -21 -19 -25 3 -3 17 3 30 14 31 25 21 35 -11 11z"/>
<path d="M1006 1631 c-4 -7 -5 -15 -2 -18 9 -9 19 4 14 18 -4 11 -6 11 -12 0z"/>
<path d="M1050 1450 c0 -5 5 -10 11 -10 5 0 7 5 4 10 -3 6 -8 10 -11 10 -2 0 -4 -4 -4 -10z"/>
<path d="M1021 1395 c1 -19 18 -51 18 -35 0 8 -4 22 -9 30 -5 8 -9 11 -9 5z"/>
<path d="M1156 1347 c3 -10 9 -15 12 -12 3 3 0 11 -7 18 -10 9 -11 8 -5 -6z"/>
<path d="M1712 1297 c-14 -16 -6 -27 20 -27 13 0 18 6 16 17 -4 22 -22 27 -36 10z"/>
<path d="M1780 1281 c0 -9 41 -23 48 -16 2 2 1 8 -3 14 -8 13 -45 15 -45 2z"/>
<path d="M2061 1064 c-30 -7 -57 -18 -61 -24 -10 -16 -15 -17 -31 -3 -10 8 -27 9 -54 3 -25 -6 -44 -5 -51 1 -9 7 -22 5 -43 -5 -19 -10 -32 -12 -36 -6 -12 20 -25 9 -25 -21 0 -19 4 -28 11 -24 6 4 17 -2 25 -14 9 -12 20 -19 25 -16 5 4 12 -1 15 -10 4 -10 13 -14 23 -10 29 12 92 15 86 5 -4 -6 8 -10 29 -10 19 0 38 5 41 10 4 7 12 7 25 0 23 -12 43 -13 36 -1 -7 10 18 34 27 25 12 -12 46 18 52 47 4 18 12 28 19 26 7 -3 13 5 14 18 1 19 -3 22 -36 22 -20 -1 -61 -6 -91 -13z"/>
<path d="M1701 1021 c-8 -5 -9 -11 -3 -15 5 -3 12 1 16 9 6 17 6 18 -13 6z"/>
<path d="M1307 3916 c-4 -10 -1 -13 9 -9 15 6 19 23 5 23 -5 0 -11 -7 -14 -14z"/>
<path d="M791 2305 c-1 -15 37 -61 44 -54 3 4 -5 20 -19 35 -14 16 -25 25 -25 19z"/>
<path d="M352 1205 c0 -16 2 -22 5 -12 2 9 2 23 0 30 -3 6 -5 -1 -5 -18z"/>
<path d="M108 1193 l-58 -4 0 -86 0 -86 111 6 c60 4 114 9 120 12 10 7 12 87 3 134 -7 34 -7 34 -176 24z"/>
<path d="M350 1083 c0 -45 5 -85 10 -88 13 -8 13 135 0 155 -7 10 -10 -10 -10 -67z"/>
</g>
</svg>
